<svg xmlns="http://www.w3.org/2000/svg" width="61" height="61" viewBox="0 0 61 61">
  <g id="グループ_101" data-name="グループ 101" transform="translate(-761 -208)">
    <g id="楕円形_2" data-name="楕円形 2" transform="translate(761 208)" fill="none" stroke="#5fcb8c" stroke-width="2">
      <circle cx="30.5" cy="30.5" r="30.5" stroke="none"/>
      <circle cx="30.5" cy="30.5" r="29.5" fill="none"/>
    </g>
    <g id="Icon_feather-box" data-name="Icon feather-box" transform="translate(773.5 219.996)">
      <path id="パス_169" data-name="パス 169" d="M31.5,24V12A3,3,0,0,0,30,9.4l-10.5-6a3,3,0,0,0-3,0L6,9.4A3,3,0,0,0,4.5,12V24A3,3,0,0,0,6,26.595l10.5,6a3,3,0,0,0,3,0l10.5-6A3,3,0,0,0,31.5,24Z" fill="none" stroke="#5fcb8c" stroke-linecap="round" stroke-linejoin="round" stroke-width="2"/>
      <path id="パス_170" data-name="パス 170" d="M4.905,10.44,18,18.015,31.095,10.44" fill="none" stroke="#5fcb8c" stroke-linecap="round" stroke-linejoin="round" stroke-width="2"/>
      <path id="パス_171" data-name="パス 171" d="M18,33.12V18" fill="none" stroke="#5fcb8c" stroke-linecap="round" stroke-linejoin="round" stroke-width="2"/>
    </g>
  </g>
</svg>
