<?xml version="1.0" encoding="utf-8"?>
<!-- Generator: Adobe Illustrator 26.0.3, SVG Export Plug-In . SVG Version: 6.00 Build 0)  -->
<svg version="1.1" id="icon-qeustion" xmlns="http://www.w3.org/2000/svg" xmlns:xlink="http://www.w3.org/1999/xlink" x="0px"
	 y="0px" viewBox="0 0 16 16" style="enable-background:new 0 0 16 16;" xml:space="preserve">
<style type="text/css">
	.st0{fill:#707070;}
	.st1{enable-background:new    ;}
	.st2{fill:#FFFFFF;}
</style>
<circle id="楕円形_19" class="st0" cx="8" cy="8" r="8"/>
<g class="st1">
	<path class="st2" d="M4.4,6c0.2-1.5,1.3-2.4,3-2.4c1.8,0,2.9,0.9,2.9,2.4c0,0.8-0.3,1.4-1.3,2.3C8,9,7.9,9.4,7.9,10.4H6.7v-0.3
		c0-1.1,0.2-1.6,1-2.4c0.8-0.8,1-1.2,1-1.8c0-0.7-0.5-1.2-1.3-1.2C6.6,4.7,6,5.3,6,6.3L4.4,6z M8.1,13H6.4v-1.6h1.7V13z"/>
</g>
</svg>
